<?xml version="1.0" encoding="UTF-8"?>
<svg id="Camada_2" data-name="Camada 2" xmlns="http://www.w3.org/2000/svg" viewBox="0 0 175.1 50.01">
  <defs>
    <style>
      .cls-1 {
        fill: #424242;
      }

      .cls-2 {
        fill: #d71920;
      }
    </style>
  </defs>
  <g id="Camada_1-2" data-name="Camada 1">
    <g>
      <path class="cls-2" d="M139.46,16.81h-1.29s.95.83,1.21,1.8c.05.19.08.45.09.71v9.38c-1.12.31-2.77.71-4.87.71s-4.09-.4-6.53-2.28c-3.84-2.98-4.18-8.66-4.18-10.73,0-8.91,4.49-12.46,10.42-12.46,2.52,0,5.01.65,7.29,1.82.29.15,3.02,1.69,3.02,1.69,0-.92.04-1.57.04-1.82V1.71s-4.81-1.71-9.52-1.71c-11.28,0-18.34,6.88-18.34,17.26,0,5.42,1.52,16.1,16.74,16.1,4.33,0,8.56-.66,12.74-1.77v-14.78h-6.81ZM110.78.64h-4.19s.95.83,1.21,1.8c.05.2.08.48.09.74l.05,20.06-15.62-18.38s-1.71-1.93-2.85-2.88c-1.18-1-3.19-1.31-3.19-1.31h-.27s-3.5-.01-3.5-.01c0,0,.95.83,1.21,1.8.05.17.07.39.09.62l-.02,29.68h4.38l-.04-22.98,17.87,20.94s.99,1.04,2.2,1.58c1.38.61,3.24.5,3.24.5h.93l.07-32.14h-1.64v-.04ZM61.45,22.59v-4.72h14v-4h-14V4.61h15.61V.66h-23.66s.94.83,1.21,1.8c.13.5.09,1.49.09,1.49v21.69c.02.08,0,.17,0,.28,0,3.74,2.92,6.87,6.51,6.87h.81l15.58-.04v-4.25h-9.98c-4.09,0-6.2-1.76-6.17-5.91ZM158.95,22.59v-4.72h14v-4h-14V4.61h15.61V.66h-23.66s.94.83,1.21,1.8c.13.5.09,1.49.09,1.49v21.69c.02.08,0,.17,0,.28,0,3.74,2.92,6.87,6.51,6.87h.81l15.58-.04v-4.25h-9.98c-4.09,0-6.2-1.76-6.17-5.91h0ZM39.85,17.31c5.81-.95,7.52-4.87,7.52-8.15,0-2.01-.53-4.37-2.75-6.33-2.46-2.16-6.71-2.15-11.96-2.15-.44,0-32.66-.02-32.66-.02,0,0,.95.83,1.21,1.8.13.5.09,1.49.09,1.49v21.69c.02.08-.01.17-.01.28,0,3.74,2.91,6.82,6.5,6.82.18,0,.34.04.53,0l15.88.02v-4.25h-9.98c-4.09,0-6.2-1.76-6.16-5.91v-4.72h14v-4h-14V4.61s22.11.02,25.45.02c5.13,0,7.54,2.4,7.54,5.36s-2.18,5.29-6.83,5.29c-.83,0-3.85-.05-4.6-.03l1.47,1.57h0l11.85,13.89s.99,1.04,2.2,1.58c1.37.61,3.24.5,3.24.5h.93l3.93-.04-13.37-15.45h-.02Z"/>
      <path class="cls-1" d="M6.23,41.94c-.34-1.19-.98-1.89-1.94-1.89-1.57,0-2.26,1.57-2.26,3.56s.7,3.56,2.34,3.56c1.28,0,1.74-.92,2-1.97l.68.12c-.3,1.45-1.03,2.46-2.69,2.46-1.93,0-3.06-1.66-3.06-4.17s1.13-4.17,3.06-4.17c1.42,0,2.2,1.02,2.54,2.35l-.67.15h0ZM14.28,43.61c0,2.39-1.14,4.17-3.13,4.17s-3.13-1.77-3.13-4.17,1.14-4.17,3.13-4.17,3.13,1.77,3.13,4.17ZM13.55,43.61c0-2.28-.95-3.56-2.41-3.56s-2.41,1.28-2.41,3.56.95,3.56,2.41,3.56,2.41-1.28,2.41-3.56ZM15.92,39.56h1.22l3.77,6.76h.02v-6.76h.73v8.11h-.75l-4.24-7.5h-.02v7.5h-.73v-8.11h0ZM23.77,45.4c.31,1.23,1.01,1.77,2.26,1.77.99,0,1.58-.64,1.58-1.62,0-2.18-4.3-1.32-4.3-4.01,0-1.2.81-2.1,2.28-2.1,1.25,0,2.18.7,2.54,1.94l-.63.19c-.29-.9-.9-1.53-1.91-1.53-.93,0-1.56.54-1.56,1.49,0,.55.15.94,1.62,1.5,2.23.85,2.68,1.41,2.68,2.58,0,1.38-1.13,2.15-2.42,2.15-1.52,0-2.39-.68-2.83-2.17l.67-.21h0ZM29.2,39.56h5.43v.61h-2.35v7.5h-.73v-7.5h-2.35v-.61h0ZM41.49,47.66h-.79l-1.85-3.71h-2.05v3.71h-.73v-8.11h2.68c1.56,0,2.44.88,2.44,2.2,0,1.06-.52,1.77-1.65,2.06l1.94,3.84ZM36.79,43.36h1.96c1.05,0,1.71-.6,1.71-1.59s-.57-1.59-1.71-1.59h-1.96v3.19ZM44.12,39.56v5.52c0,1.55.74,2.09,2.14,2.09s2.15-.54,2.15-2.09v-5.52h.73v5.46c0,1.84-.95,2.76-2.87,2.76s-2.87-.92-2.87-2.76v-5.46h.73ZM55.69,41.94c-.34-1.19-.98-1.89-1.93-1.89-1.57,0-2.26,1.57-2.26,3.56s.69,3.56,2.34,3.56c1.28,0,1.74-.92,2-1.97l.68.12c-.3,1.45-1.03,2.46-2.69,2.46-1.92,0-3.06-1.66-3.06-4.17s1.13-4.17,3.06-4.17c1.42,0,2.2,1.02,2.54,2.35l-.67.15h0ZM52.61,49.37c.17.07.46.18.65.18.5,0,.73-.13.73-.46s-.26-.46-.5-.46c-.17,0-.36.05-.49.1l-.16-.15.66-.92h.42l-.47.56.02.03c.07-.04.2-.07.34-.07.53,0,.86.36.86.95s-.67.87-1.16.87c-.36,0-.74-.06-1.05-.22l.15-.4h0ZM63.74,43.61c0,2.39-1.14,4.17-3.13,4.17s-3.13-1.77-3.13-4.17,1.14-4.17,3.13-4.17,3.13,1.77,3.13,4.17ZM63.02,43.61c0-2.28-.95-3.56-2.41-3.56s-2.41,1.28-2.41,3.56.95,3.56,2.41,3.56,2.41-1.28,2.41-3.56ZM58.89,39.09c.04-.52.41-1.09.97-1.09.28,0,.55.12.81.25.28.12.53.25.76.25.3,0,.45-.28.5-.55h.42c-.1.57-.32,1.09-.98,1.09-.23,0-.52-.13-.79-.26s-.54-.25-.75-.25c-.32,0-.47.28-.52.56h-.42,0ZM65.37,47.66v-8.11h4.53v.61h-3.8v2.98h2.73v.61h-2.73v3.3h4.01v.61h-4.74ZM71.41,45.4c.31,1.23,1.01,1.77,2.26,1.77.99,0,1.58-.64,1.58-1.62,0-2.18-4.3-1.32-4.3-4.01,0-1.2.81-2.1,2.28-2.1,1.25,0,2.18.7,2.54,1.94l-.62.19c-.29-.9-.9-1.53-1.91-1.53-.93,0-1.56.54-1.56,1.49,0,.55.15.94,1.62,1.5,2.23.85,2.68,1.41,2.68,2.58,0,1.38-1.13,2.15-2.42,2.15-1.52,0-2.39-.68-2.83-2.17l.67-.21h0ZM80.65,47.66v-8.11h4.53v.61h-3.8v2.98h2.74v.61h-2.74v3.3h4.01v.61h-4.74ZM89.88,39.56h.73v8.11h-.73v-8.11ZM92.87,39.56h1.22l3.77,6.76h.02v-6.76h.73v8.11h-.75l-4.24-7.5h-.02v7.5h-.73v-8.11h0ZM105.16,41.94c-.34-1.19-.98-1.89-1.94-1.89-1.57,0-2.26,1.57-2.26,3.56s.69,3.56,2.34,3.56c1.27,0,1.74-.92,2-1.97l.68.12c-.3,1.45-1.03,2.46-2.69,2.46-1.93,0-3.06-1.66-3.06-4.17s1.13-4.17,3.06-4.17c1.42,0,2.2,1.02,2.54,2.35,0,0-.67.15-.67.15ZM113.21,43.61c0,2.39-1.14,4.17-3.13,4.17s-3.13-1.77-3.13-4.17,1.14-4.17,3.13-4.17,3.13,1.77,3.13,4.17ZM112.49,43.61c0-2.28-.95-3.56-2.41-3.56s-2.41,1.28-2.41,3.56.95,3.56,2.41,3.56,2.41-1.28,2.41-3.56ZM120.26,47.66h-.79l-1.85-3.71h-2.05v3.71h-.73v-8.11h2.68c1.56,0,2.44.88,2.44,2.2,0,1.06-.52,1.77-1.65,2.06l1.95,3.84h0ZM115.57,43.36h1.96c1.06,0,1.72-.6,1.72-1.59s-.57-1.59-1.72-1.59h-1.96v3.19ZM122.18,47.66v-8.11h2.4c1.89,0,2.68.9,2.68,2.26s-.79,2.26-2.68,2.26h-1.67v3.59h-.73ZM122.9,43.47h1.67c1.37,0,1.96-.58,1.96-1.65s-.58-1.65-1.96-1.65h-1.67v3.3ZM134.59,43.61c0,2.39-1.14,4.17-3.13,4.17s-3.13-1.77-3.13-4.17,1.14-4.17,3.13-4.17,3.13,1.77,3.13,4.17ZM133.86,43.61c0-2.28-.95-3.56-2.41-3.56s-2.41,1.28-2.41,3.56.95,3.56,2.41,3.56,2.41-1.28,2.41-3.56ZM141.64,47.66h-.79l-1.85-3.71h-2.05v3.71h-.73v-8.11h2.68c1.56,0,2.44.88,2.44,2.2,0,1.06-.52,1.77-1.65,2.06,0,0,1.95,3.84,1.95,3.84ZM136.95,43.36h1.96c1.05,0,1.71-.6,1.71-1.59s-.57-1.59-1.71-1.59h-1.96v3.19ZM145.26,39.56h1.11l2.51,8.11h-.77l-.8-2.65h-3l-.81,2.65h-.77l2.54-8.11ZM147.14,44.41l-1.32-4.24h-.02l-1.31,4.24h2.65,0ZM154.62,41.94c-.34-1.19-.98-1.89-1.94-1.89-1.57,0-2.26,1.57-2.26,3.56s.69,3.56,2.34,3.56c1.27,0,1.74-.92,2-1.97l.68.12c-.3,1.45-1.03,2.46-2.69,2.46-1.92,0-3.05-1.66-3.05-4.17s1.13-4.17,3.05-4.17c1.42,0,2.2,1.02,2.54,2.35l-.67.15h0ZM151.54,49.37c.18.07.47.18.65.18.5,0,.73-.13.73-.46s-.25-.46-.5-.46c-.17,0-.36.05-.49.1l-.16-.15.66-.92h.42l-.48.56.02.03c.07-.04.2-.07.34-.07.53,0,.86.36.86.95s-.67.87-1.16.87c-.36,0-.74-.06-1.05-.22l.15-.4h0ZM162.67,43.61c0,2.39-1.14,4.17-3.13,4.17s-3.13-1.77-3.13-4.17,1.14-4.17,3.13-4.17,3.13,1.77,3.13,4.17ZM161.95,43.61c0-2.28-.95-3.56-2.41-3.56s-2.41,1.28-2.41,3.56.95,3.56,2.41,3.56,2.41-1.28,2.41-3.56ZM157.82,39.09c.04-.52.4-1.09.97-1.09.28,0,.55.12.81.25.28.12.53.25.76.25.3,0,.45-.28.5-.55h.42c-.1.57-.32,1.09-.98,1.09-.23,0-.52-.13-.79-.26s-.54-.25-.75-.25c-.32,0-.47.28-.52.56h-.42ZM164.31,47.66v-8.11h4.53v.61h-3.81v2.98h2.74v.61h-2.74v3.3h4.01v.61h-4.74,0ZM170.34,45.4c.31,1.23,1.01,1.77,2.26,1.77.99,0,1.58-.64,1.58-1.62,0-2.18-4.3-1.32-4.3-4.01,0-1.2.81-2.1,2.28-2.1,1.25,0,2.18.7,2.54,1.94l-.62.19c-.29-.9-.9-1.53-1.91-1.53-.93,0-1.56.54-1.56,1.49,0,.55.15.94,1.62,1.5,2.23.85,2.68,1.41,2.68,2.58,0,1.38-1.13,2.15-2.42,2.15-1.52,0-2.39-.68-2.83-2.17l.67-.21h0Z"/>
    </g>
  </g>
</svg>